<svg version="1" xmlns="http://www.w3.org/2000/svg" width="794.667" height="794.667" viewBox="0 0 596.000000 596.000000"><path d="M259.5 3.6c-7.1.8-13.9 1.8-15 2.3-1.1.6-3.6 1.3-5.5 1.6-9.1 1.6-22.8 4.8-25.5 5.9-1.6.7-5.2 1.9-8 2.6-2.7.7-5.4 1.6-6 2-.5.4-3.2 1.4-6 2.4-6.7 2.3-8.3 3.1-27.5 12.6-18.2 9-30.6 16.2-39.8 23.4-3.3 2.5-6.5 4.6-7.1 4.6-.6 0-1.6.9-2.3 2-.7 1.1-1.8 2-2.3 2-3.4 0-49.5 46.1-49.5 49.5 0 .5-.9 1.6-2 2.3-1.1.7-2 1.7-2 2.3 0 .6-2.1 3.8-4.6 7.1C49.2 135.4 42 147.8 33 166c-9.5 19.2-10.3 20.8-12.6 27.5-1 2.7-2 5.4-2.4 6-.4.5-1.3 3.2-2 6-.7 2.7-1.9 6.3-2.6 8-1.2 2.9-4.6 17.5-6 26-.4 2.2-1 4.4-1.4 5-1.8 2.4-4 31.5-4 53.5s2.2 51.1 4 53.5c.4.5 1 2.8 1.4 5 1.4 8.5 4.8 23.1 6 26 .7 1.6 1.9 5.2 2.6 8 .7 2.7 1.6 5.4 2 6 .4.5 1.5 3.2 2.4 6 2.6 7.1 4.8 12 13.3 29 10 20.1 16.3 30.3 28 45.4.4.6 8.2-1.9 12.8-4.2 4.4-2.2 21.2-7.7 23.4-7.7 1.2 0 12.1-3.3 16.6-5 3.9-1.6 6-2.2 8.7-2.5 11.2-1.5 34.9-8 35.6-9.7.2-.4 1-.8 1.8-.8s3.4-.9 5.6-2c2.3-1.1 4.7-2 5.3-2 1.7 0 6.5-2.4 6.5-3.3 0-.4.8-.7 1.8-.7.9 0 3.5-1.7 5.7-3.6 2.2-2 8.3-5.7 13.7-8.2l9.7-4.5.7-6.6c1.2-10.5.9-23.4-.5-23.9-.7-.2-2.1-2.4-3.2-4.8-1-2.5-2.5-4.7-3.4-5-.8-.4-1.5-1.2-1.5-2s-.3-1.4-.8-1.4c-.4 0-1.3-2.3-1.9-5.1-.7-2.8-2-5.7-2.9-6.3-1-.7-1.8-3.2-2.1-6.2-.2-2.7-.6-6.5-.7-8.4-.2-1.9-1.1-6.4-2-10-2-8.1-2.6-12.4-3.2-22-.3-5.1-1.2-8.8-2.7-11.5-1.4-2.7-2.2-6-2.3-10-.2-8.4-1.2-13.9-4.1-22.2l-2.5-7.2 2.4-14.7c2.4-15.7 3.8-18.6 9.3-20 2-.5 2.5-1.5 3.6-7.7 1.1-7 1.1-11-.7-44.7-.5-9.2-.2-13.7 1.4-22.5 2.4-13.2 7.6-28.1 12.8-36.5.8-1.4 3-5.5 4.8-9.1 4.6-9.2 9.2-15.7 12.4-17.3 1.5-.8 4.1-2.6 5.7-4 1.7-1.4 3.5-2.6 4-2.6.6 0 1.6-.9 2.3-2 .7-1.1 1.8-2 2.6-2 .7 0 2.1-1 3.2-2.1 3.6-4.2 28.1-19.9 30.9-19.9 1.1 0 4.7-.9 8-2 4.8-1.7 8.2-2 18.5-1.9 8 .2 13.3-.2 14.7-.9 2.7-1.5 10.9-1.6 11.8-.2.3.5 1.3 1 2 1 .8 0 3.8 1.8 6.7 4 2.9 2.2 5.8 4 6.5 4 .7 0 6.5 2.7 13 5.9 10 5.1 12.4 6.8 15.8 11.1 2.2 2.8 5.6 7 7.6 9.3 4.3 5.1 12.5 16.7 15.8 22.2 6.4 10.9 14.7 33.8 13.4 37.1-.2.7.3 5 1.2 9.6 1.4 6.7 1.6 11.2 1.1 23.3-.3 8.2-.9 17.5-1.2 20.5-.3 3-.6 11.1-.6 17.9l-.1 12.3 4.1 3.7c4.3 3.9 5.8 7.1 6.6 14.1.3 2.5 1 6.7 1.6 9.5 1.3 6.2 1.1 13.3-.5 16-2.8 4.6-6.7 17.4-6.8 22.6-.2 4.5-.7 6.2-3.2 9.2-1.7 2-4.2 3.9-5.7 4.3-1.6.4-2.8.9-2.9 1.3-.7 5.2-1 7.4-2 12.1-.7 3-2 8.2-3 11.4-1.1 3.3-1.9 7.1-1.9 8.6s-.3 3-.7 3.3c-.8.9-5.1 12.8-6.6 18.5-.6 2.3-1.5 4.2-1.9 4.2-.5 0-.8.8-.8 1.9 0 1-.7 2.4-1.5 3.1-.8.7-1.5 2.1-1.5 3.1s-1 2.5-2.3 3.4c-2.2 1.4-2.3 1.9-2 13.4.2 6.5.9 14.7 1.6 18.2 1.3 6.3 1.3 6.4 5.2 7.1 2.2.4 6.9.7 10.4.7 6.1.1 6.5.2 10.7 4.5 2.8 2.9 6.3 5.2 10.1 6.5 6.8 2.5 10.2 4.1 12.3 5.6.8.7 4.7 2 8.5 3 3.9 1 7.9 2.4 9 3 1.1.7 5.6 2.5 10 4 4.4 1.4 9.5 3.4 11.4 4.2 1.9.8 6.1 1.9 9.5 2.3 3.4.4 8.6 1.8 11.6 3s7.8 2.9 10.5 3.7c2.8.8 5.5 1.9 6 2.3.6.4 4.4 1.8 8.5 3s9.3 3 11.5 4c9.6 4.2 9.6 4.2 12.1 2.5 1.3-.8 2.4-2 2.4-2.6 0-.6 2-3.7 4.5-7 10-12.9 31.6-52.9 35-64.9.4-1.4 1.6-4.3 2.6-6.5s2.5-6.7 3.4-10c.9-3.3 2-6.9 2.6-8 1-2.2 4.3-16.6 5.4-23.5.4-2.5 1.1-5 1.5-5.5 1.8-2.2 4-32.3 4-53.5 0-21.1-2.2-51.3-4-53.5-.4-.6-1-2.8-1.4-5-1.4-8.5-4.8-23.1-6-26-.7-1.7-1.9-5.3-2.6-8-.7-2.8-1.6-5.5-2-6-.4-.6-1.5-3.3-2.4-6-6.5-18.2-25.4-53.6-36.1-67.4-2.5-3.3-4.5-6.4-4.5-7 0-.6-.9-1.6-2-2.3-1.1-.7-2-1.8-2-2.3 0-3.4-46.1-49.5-49.5-49.5-.5 0-1.6-.9-2.3-2-.7-1.1-1.7-2-2.3-2-.6 0-3.8-2.1-7.1-4.6-13.7-10.6-49.1-29.5-67.3-36-2.7-.9-5.4-2-6-2.4-.5-.4-3.2-1.3-6-2-2.7-.7-6.3-1.9-8-2.6-2.9-1.2-17.5-4.6-26-6-2.2-.4-4.4-1-5-1.4-.5-.5-7.9-1.5-16.3-2.4-18.7-2-57.3-2-75.7 0z"/><path d="M313 65.6c-2.6 1.3-6.2 1.6-14.5 1.5-8.4-.1-12.5.4-18 2-3.8 1.2-8.8 2.6-11 3.2-2.2.6-8.9 4.7-15 9.1-6 4.4-14.1 9.9-17.8 12.4-3.8 2.4-7.1 5-7.3 5.7-.3.7-1.7 1.8-3.2 2.5-7.6 3.2-26.2 38.8-28.6 54.6-.9 6.1-1.6 18-1 16.6.3-.6 1-1 1.5-.6.5.3 1-1 1-2.8.1-1.8.3-4 .4-4.8.1-.8.3-2.1.4-2.8 0-.7.5-1.1 1-.7.5.3 1.3 0 1.7-.6.4-.8.3-.9-.4-.5-1.4.8-1.1-2.9.3-4.1.4-.5.5-.1 0 .7-.6 1.2-.5 1.2.5.3.7-.6 1.4-2.2 1.5-3.5.4-3.8.5-3.9 1.4-3.4 1 .7 3.3-4.9 2.4-5.8-.4-.3-.2-.6.3-.6 1.1 0 4.2-6.5 4.9-9.9.7-3.5 6.5-9.8 12.6-13.7 3.2-2 5.6-4 5.3-4.5-.3-.5.6-.9 2-.9s2.6-.5 2.6-1.1c0-.5.5-.7 1-.4.6.3 1 .1 1-.4 0-.6.3-1 .8-.9.4.2 4.8-1.9 9.9-4.5 5-2.6 10.3-4.7 11.7-4.7 1.4 0 2.6-.3 2.6-.8 0-.8 4.9-3.2 6.7-3.2.7 0 1.3-.4 1.3-.9 0-.4 1.5-.8 3.3-.8 1.8.1 3.8-.3 4.5-.7.7-.4 1.9-.2 2.7.4.8.6 2.3.9 3.4.5 1.1-.3 4.2.2 7 1.1 3 .9 6.4 1.4 8.2 1 1.8-.3 2.8-.2 2.4.4-.3.6.1 1 .9 1 .9 0 1.6-.4 1.6-.9s1.8-.9 4-.9c2.7-.1 3.8.3 3.4 1-.5.8.5.9 3.4.5 2.2-.4 4.3-.3 4.6.2.4.5 1.7.8 3.1.6 1.4-.1 2.5.1 2.5.4 0 .3 1.2.7 2.6.7 1.4.1 3.5 1 4.6 2 1.2 1.1 1.8 1.4 1.5.7-1-1.6 1.2-2.8 2.6-1.4.8.8.8 1.1-.1 1.1-.7 0-1.2.4-1.2.9 0 .6 1.2.6 3 .1 2-.6 3-.5 3 .2 0 .6 1.1.8 2.5.6 1.6-.3 2.5-.1 2.5.7 0 .7.7 1.6 1.6 1.9 1 .4 1.3.2.8-.7-.6-.9-.5-.9.8 0 .8.7 1.9.9 2.4.5.4-.4.2.1-.5 1.1-1.2 1.5-1.2 1.7.1 1.2 2-.8 10.5 3.2 12.2 5.7.7 1 2 1.8 2.7 1.6.8-.2 1.3.3 1.1.9-.1.7.4 1.3 1.2 1.3 2.8 0 16.9 15.5 17.5 19.1.1 1.3.8 3.3 1.4 4.4.6 1.1 1 2.3.9 2.7-.1.5.2.8.6.8.4 0 .9 1.2 1 2.7.5 5.9.9 8 1.7 9.3.6.9.4 1.1-.5.5-1-.6-1.1-.4-.6 1.1.5 1 1.2 3.3 1.6 5 .4 1.8 1.1 3.7 1.5 4.4.5.7 1 3.5 1.2 6.3.2 2.7.4 5.3.5 5.6.1.3-.2 1.4-.6 2.3-.5 1-.5 2.6-.1 3.5 1 2.5 2 9.7 2.4 17 0 1.8.5 3.3 1 3.3 2 0 2.9-36.7 1-41.7-.5-1.4-1.3-7.1-1.8-12.7-.9-10.3-1.2-11.2-8.8-27.6-3.3-7.2-8.3-14.8-13-20-1.3-1.4-2.3-2.8-2.3-3.1 0-.3-1-1.7-2.1-3-1.2-1.3-2.9-3.5-3.7-4.9-3.7-5.7-11.7-14.1-14-14.7-4.5-1.1-25-11.2-28.1-13.9-3.9-3.2-8.6-3.9-13.1-1.8zM398 186c0 .5-.5 1-1.1 1-.5 0-.7-.5-.4-1 .3-.6.8-1 1.1-1 .2 0 .4.4.4 1zM223.4 184.2c-.3.5-1.2.7-2 .4-.8-.3-1.4-.1-1.4.5 0 .5-1.2 1.5-2.6 2.1-2.3 1.1-2.4 1.3-.7 1.9 1.4.5.8 1.1-3 2.8-2.7 1.1-5.5 2.1-6.3 2.1-.9 0-1.2.4-.9 1 .3.5 0 1-.8 1-2 0-5 3.7-4.4 5.3.2.7-.1 2.1-.9 3.2-.8 1-1.4 2.4-1.4 2.9 0 .6.4.5.9-.2.7-1.1.9-1.1 1.4.2.4 1 .1 1.6-.8 1.6-.8 0-1.5.7-1.5 1.5 0 1.1.6 1 2.5-.7 1.4-1.2 2.5-2.8 2.5-3.5 0-.7.7-1.3 1.5-1.3s1.9-.9 2.5-2c1.3-2.5 4.2-2.8 3.3-.3-.5 1.2-.3 1.4.7.8.8-.5 2.9-.8 4.7-.7 1.8.2 3.3-.2 3.3-.8 0-1.4 17.3-1.3 20.7.2 1.5.7 3 1.5 3.3 1.8.7.8 12 .8 12 .1 0-.3 1.8-.7 4-.8 7.8-.3 8.1-.5 4.8-3.4-1.8-1.4-2-1.8-.7-1.9.9 0 2.2.7 2.9 1.5.7.9 1.5 1.3 1.8 1 .3-.3-1-1.9-2.9-3.7-1.9-1.7-2.6-2.8-1.7-2.5 1 .3 2 .1 2.4-.5.4-.6.3-.8-.4-.4-.6.3-1.3.2-1.7-.4-.3-.5-1.8-1-3.3-1.1-2.4 0-2.5-.1-.7-.9 1.9-.8.9-.9-9.7-1.1-1 0-1.8-.4-1.8-1 0-.5-.3-.8-.7-.8-3.3.5-6.3-.3-6.3-1.7 0-1.3-.6-1.5-2.7-1-6.5 1.6-8.6 1.8-8 .9.4-.6-1.1-1.5-3.3-2.1-2.6-.6-4.2-.6-4.6 0zm4.2 1.6c-1 .2-2.2 0-2.8-.6-.6-.6 0-.7 1.9-.4 2.1.5 2.3.7.9 1zm-1.6 1.6c0 .2-.7.7-1.6 1-.8.3-1.2.2-.9-.4.6-1 2.5-1.4 2.5-.6zm-10 10.5c1.2 1.2 1.1 1.4-.8.9-1.2-.4-2.2-.2-2.2.3s.5.9 1.2.9c.6 0 .9.2.7.5-.3.2-1.8 0-3.5-.4-1.6-.5-2.1-1-1.1-1 .9-.1 1.7-.6 1.7-1.2 0-.5-.5-.7-1.2-.3-.6.4-.8.3-.5-.2.9-1.5 4.2-1.2 5.7.5zm3.3-1.2c-.7.2-1.9.2-2.5 0-.7-.3-.2-.5 1.2-.5s1.9.2 1.3.5z"/><path d="M369.2 188.4c-1.3.7-1.9 1.6-1.5 2 .4.5.1.6-.7.4-.8-.3-1.4-1-1.3-1.5.2-1.2-12.3-.6-14.7.7-1 .6-3 1-4.4 1-1.4 0-2.8.4-3.1 1-.3.5-2.3 1-4.5 1-2.5 0-4 .5-4.4 1.6-.3.8-1 1.3-1.5 1-1.3-.9-8.3 2.3-7.6 3.4.4.6-.1 1.3-.9 1.6-.9.3-1.3 1-1 1.5.3.5 1.1.6 1.7.2.7-.3.3.3-.7 1.5-1.1 1.2-2.1 2-2.3 1.8-.7-.6-7.3 6.1-7.3 7.3 0 .6-.3 1.1-.8 1.1-.4 0-1.3.9-2 2.1-1.1 1.7-1.1 2.4 0 3.7.7.9.8 1.3.3.9-1.7-1.5-3.2 3.3-2.4 8.1.3 2.6.6 5.7.4 7-.2 1.6.2 2.2 1.1 1.8.8-.3 1.4.1 1.4 1s-.5 1.2-1.2.8c-.8-.5-.9-.2-.4 1.2 2.5 5.9 4 13.9 3.1 16.1-.7 1.7-.8 1.6-1.6-.2-.7-1.5-.8-1.1-.6 1.7.2 2.1-.1 3.8-.5 3.8-.5 0-.4.8.1 1.9.6 1 .7 2.1.4 2.5-.3.3.1.6 1 .6 1 0 1.7.5 1.7 1.1 0 .5-.6.7-1.2.4-.7-.3-.3.2 1 1.1 1.2.9 2.2 2.5 2.2 3.5 0 1.1.4 1.9.9 1.9s1.2.9 1.6 1.9c.3 1.1 1.6 3.2 2.8 4.7 1.2 1.5 2.2 3.3 2.3 3.8.1.6.7 2.2 1.2 3.6.8 2.1 1.1 2.2 1.7.8.3-.9.2-2.6-.5-3.7-1.4-2.8-.3-2.7 2.1.1 1.4 1.7 1.8 1.9 1.9.7 0-.8-.6-2.4-1.4-3.4-.7-1-1.1-2.7-.8-3.8.3-1 0-2.2-.5-2.6-1.5-.9-5.3-7.9-5.3-9.6 0-.8-.4-1.5-.9-1.5s-1.1-.9-1.4-2c-.3-1.1-.1-2 .5-2 .5 0 .2-.8-.8-1.7-1-1-1.2-1.9-.6-2.1.7-.2.8-1.1.2-2.7-.6-1.7-.5-2.5.4-2.8 1-.4 1.3.1 1 1.6-.2 1.2-.2 1.6.2.9.3-.6 1.2-1.2 2-1.2 1.7 0 1.9-1.7.2-2.3-.8-.4-.7-.6.4-.6 1.1-.1 1.5-.7 1.1-2.1-.4-1.6-.2-1.9 1.1-1.4.9.3 1.4 1 1.1 1.4-.3.5.3.7 1.2.6 1.9-.3 3.1-2.6 1.4-2.6-.6 0-1.1-1.1-1.1-2.5s-.4-2.5-.9-2.5-1.3-.9-1.6-2c-.4-1.1-1-1.8-1.4-1.6-.4.3-.8-.1-.8-.7 0-.7 1.1-1.8 2.4-2.4 1.3-.6 2.3-.7 2.3-.2 0 .4.7.6 1.5.3.8-.4 1.5-.1 1.5.4 0 1.2 4.8.6 6.5-.8 1.5-1.2 4.2-.7 9.6 1.9 4.4 2.2 6.5 2.8 3.9 1.1-.8-.5-1.1-1.2-.7-1.7.9-.8 2.8 1.7 2.1 2.8-.5.9-8.6-.1-9.9-1.2-.5-.5-1.4-.9-1.9-.9-.6 0-.2.6.9 1.3 2.5 1.7 10.8 4.5 15.8 5.2 2 .3 3.7 1.1 3.7 1.7 0 .9.3.9 1.1.1.9-.9 1.8-.9 3.8.1 4 2 7.9 2.7 8.6 1.6.5-.8 1.2-.7 2.3.2.9.7 1.3.8.9.2-.8-1.4 2.8-4.4 5.5-4.4 1.2 0 1.8-.3 1.5-.7-.4-.3-.2-1.2.4-1.9.6-.7.6-1.5.1-1.8-.6-.3-.6-2.6 0-5.7.6-3.5.6-6.7-.1-9.5-1.9-7.3-1.1-9.3 2.3-5.9.8.8 1.9 1.5 2.4 1.5 1.3 0 2.4 2.9 1.5 4.2-.3.7-.1.8.5.4.7-.4 1.2-.2 1.2.3 0 .6-.4 1.1-.9 1.1s-.7 1-.3 2.2c.5 2.1.5 2.1 1.3.2.7-2 1.3-13.2 1-18.5 0-1.5-1.7-4.3-3.6-6.5-1.9-2.1-3.5-4.2-3.5-4.6 0-.4-.7-.8-1.6-.8-.9 0-1.2.5-.8 1.2.5.8.2.9-1 .5-1-.4-2.2-.7-2.8-.7-.6 0-.8-.6-.5-1.4.9-2.2-3-7-6.6-8.2-2.5-.9-3.9-.9-5.5 0zm5.8 1.7c0 1.4-1.6 1.1-2.9-.5-1-1.2-.8-1.3.8-.9 1.2.3 2.1.9 2.1 1.4zm-17 24c0 .7.9.9 2.3.5 1.7-.4 2.4-.1 2.4.9 0 1.1-.9 1.3-3.6.9-4.5-.7-6.6-.7-11.1.1-4.3.8-3.5-.2 1.7-2 4.7-1.7 8.3-1.9 8.3-.4zm-15 10.8c0 4.2 3.1 9.1 5.7 9.1.9 0 1.4.2 1.1.5-.3.3-3.6-.2-7.4-1.1-3.8-.9-8.9-1.8-11.4-2.1-5.6-.6-6.8-1.6-3.6-3.1 2.1-.9 2.4-.9 1.9.3-.3.8 0 1.5.6 1.5s1.1-.8 1.1-1.8c0-1.1 1.9-2.7 5.3-4.4 2.8-1.4 5.5-2.7 6-2.7.4-.1.7 1.6.7 3.8zm-12.2-1.2c-.6.7-1.9 1.3-3 1.3-1 0-1.7.4-1.4.8.2.4-.4.9-1.5.9-2.3.2-2.5-2.2-.3-3.5.9-.5 2.9-.9 4.4-.8 2.1.1 2.6.4 1.8 1.3zm21.6 2c-1 4-1.4 4.1-1.4.5 0-1.8.5-3.2 1-3.2.6 0 .8 1.1.4 2.7zm17.3 3.1c.6 1.1.8 2.3.5 2.9-1.1 1.7-6.9 4.3-9.7 4.3h-2.6l3.8-4.5c4-4.8 6.2-5.6 8-2.7zm-33.4 5.9c-.7.2-1.9.2-2.5 0-.7-.3-.2-.5 1.2-.5s1.9.2 1.3.5zM245.9 206.5c-.2.2-4.2.9-8.9 1.5-13.1 1.8-22.5 5.7-22.5 9.5 0 .7-.8 2.2-1.8 3.3-1.9 2.1-1.4 5.4.8 4.6.7-.3 2-2.3 3-4.4 1.4-3.1 2.1-3.7 3.4-3 2 1 5.4-.6 4.5-2.2-.4-.7-.9-.6-1.5.3-.4.7-1 1.1-1.3.8-.9-.9 1-3 3-3.3 1-.2 2.2.1 2.5.7.4.6 1.8-.1 3.3-1.7 2.8-2.7 7.1-3.4 10.4-1.7.9.5 2.8 1.3 4.2 1.9 2.3.9 2.1 1-1.5.9-5.4-.1-13 1.2-15.8 2.6-3.8 2-9.2 6-10.1 7.6-.5.8-1.9 2.5-3.1 3.7-1.7 1.7-4.5 7.2-4.5 8.8 0 .1.9.2 2 .2s2-.4 2-.9c0-.4.5-.5 1-.2.6.4.8 1.1.5 1.6-.4.5-.1.9.4.9.6 0 1.1-.5 1.1-1.1 0-.6.8-.9 1.8-.7.9.2 2.4-.5 3.3-1.6 1.5-1.9 1.6-1.8 1.3 1.5-.2 1.9-.1 2.5.2 1.5.5-1.5.8-1.6 1.6-.5.7 1 .8.8.5-.9-.3-1.2 0-2.2.5-2.2.6 0-.1-1.1-1.6-2.5-1.4-1.3-2.6-3.1-2.6-4 0-1.6 6.7-8.5 8.3-8.5.4 0 .7 1.6.7 3.6 0 2.9.8 4.4 3.8 7.4 3.5 3.6 4 3.7 9 3.2 5.1-.4 5.8 0 5.3 3-.2 1.2 2.2.9 3.9-.3 1.3-1 1.3-1 0-.7-.8.2-2.5-.6-3.7-1.9-1.2-1.3-1.9-2.3-1.5-2.3 1.3 0 4.2-5.7 4.2-8.3 0-1.4.7-2.7 1.5-3.1.8-.3 1.5-.1 1.5.4 0 .6 2 1.9 4.5 3.1 2.5 1.2 4.5 2.5 4.5 3s.7.6 1.5.3c1.2-.5 1.2-.8 0-2-.7-.8-1.8-1.4-2.3-1.4-.6 0-1.3-.7-1.6-1.6-.5-1.3-.2-1.5 1.6-1.1 1.2.4 2.8.1 3.5-.4.9-.8 1.9-.4 3.8 1.5 1.6 1.6 2.5 2 2.5 1.1 0-2.5-8.3-9.7-14.5-12.5-5.7-2.6-11.9-4.3-12.6-3.5zm-3.9 17.6c0 3.5-1.5 3.1-2.2-.6-.4-1.7-.1-2.5.8-2.5s1.4 1.1 1.4 3.1zm-23 9.4c1.1 1.3 1 1.4-.4.9-.9-.3-1.6-1-1.6-1.5 0-1.3.6-1.1 2 .6zM266.3 229.2c-2.1.5-3.3 1.5-3.3 2.6 0 1 .3 1.3.8.7.4-.6 1.6-1.2 2.7-1.3 2.1-.4 4.2-1.9 3.4-2.5-.2-.2-1.9 0-3.6.5z"/><path d="M253.7 231.4l-2.8 1.2 2.7 1.3c2.2 1 2.5 1 1.7-.1-.9-1-.6-1.3 1.4-1.5 1.4 0 3-.6 3.6-1.2 1.5-1.5-2.9-1.3-6.6.3zM228.2 234.2c-1.6 1.6-1.5 2.5.1 2.5.7 0 1.3-.9 1.3-1.9 0-2.1.1-2.1-1.4-.6zM231.6 235.5c.4.8.9 1.5 1.3 1.5s.8-.7.8-1.5-.6-1.5-1.3-1.5c-.8 0-1.1.6-.8 1.5zM235.7 234.7c-.4.3-.7 1.1-.7 1.7 0 .6.5.5 1.2-.2.6-.6.9-1.4.7-1.7-.3-.3-.9-.2-1.2.2zM240 238.6c0 .8.5 1.2 1 .9.6-.3 1-1 1-1.6 0-.5-.4-.9-1-.9-.5 0-1 .7-1 1.6zM244 238c-1.8 1.2-.2 1.2 2.5 0 1.3-.6 1.5-.9.5-.9-.8 0-2.2.4-3 .9zM401.1 253.3c.1 4.6-.2 9-.6 9.8-.5.7-.4 1.4.3 1.7.8.2.7.8-.3 1.9-.8.8-1.5 2.9-1.5 4.6 0 1.8-.6 5.8-1.4 8.9-1 4.2-1 6-.2 6.9.8.9.8 1-.1.5-1.2-.6-1.8 1.4-2.7 8.4-.8 5.4-1.6 9.2-2.5 10.9-.5.9-.6 2.2-.3 3 .2.8 0 1.1-.6.7-.6-.3-1.5.9-2.2 2.9-.6 1.9-2.1 4.1-3.2 4.9-1.3.9-1.7 1.9-1.2 2.8.4.7.4 1-.1.6-.4-.4-1.3-.1-1.9.7-.9 1.3-1.1 1.1-1.3-1.1-.1-1.9.1-2.3.8-1.3.7 1.1.9 1.1.9-.3 0-.9-.4-2-1-2.3-.5-.3-1 0-1 .7s-.9.2-2-1.2l-1.9-2.5.5 2.5c.5 2.4.5 2.4-1 .6-.9-1.1-1.6-1.5-1.6-1 0 .6.4 1.4.9 2 .6.5 1.7 2.5 2.5 4.4 1.2 3 1.2 3.9 0 6-1.3 2.4-1.3 2.4-.7-1 .3-1.9.3-3.2-.2-2.8-1.2 1.1-1.8 8.1-.6 7.4.7-.5.9-.1.5.8-.8 2-1.3 2-3.8-.2-2-1.7-2-1.7-.3 1 1 1.6 1.3 2.8.7 2.8-.6 0-.8.4-.5 1 .5.9-1.5 1.5-3.8 1.1-.4-.1-.3.8.3 1.9.8 1.6.8 1.8-.4 1.4-.8-.3-1.7 0-2.2.7-.4.7-.3 1 .3.6s1.4 0 1.7.9c.9 2.4.7 3.1-.4 1.4-.8-1.3-1-1.2-1 .2 0 2.9-1.8 2-2.5-1.3-.4-1.7-1.3-3.3-2-3.5-.7-.3-1.6-1.2-1.9-1.9-.3-1 0-1.2 1.2-.8 1.5.6 1.5.4.4-1-.8-.9-1-2.2-.6-2.8.4-.7.3-.9-.4-.5-.6.3-1.3.2-1.7-.4-.4-.6-1.1-.7-1.7-.4-.5.4-.4-.4.3-1.7 1.2-2.3 1.1-2.3-.6-.9-1.1.9-1.6 1-1.1.2.4-.6.3-1.2-.2-1.2s-.9-.6-1-1.3c-.4-4.3-1-5.4-4.2-6.9-1.9-.9-2.9-1.7-2.1-1.7.8-.1 1.1-.4.8-.7-.4-.4-1.4-.1-2.4.7-1.1.9-1.4 1-.9.1.5-.9-.3-1.2-3.1-1.2-2.2 0-4.4-.5-5-1.1-.6-.6-2.9-1.2-5.2-1.2-3.3-.2-4 .1-3.6 1.3.3.8-.2.6-1-.5s-1.9-2.6-2.5-3.3c-.6-.6-.8-1.2-.5-1.2.3 0 0-1-.6-2.3-1-1.9-1-2.1.2-1.2.8.5.6.2-.4-.8-1.9-1.6-1.9-1.7-.1-1.7 3.4-.1 7.4-4.6 7.3-8.2 0-3-.1-3.1-1-1-.5 1.3-1.5 3-2.3 3.7-1.2 1.2-1.5 1.1-1.9-.6-.3-1.1-1.5-2.3-2.6-2.6-1.1-.3-2.1-1.5-2.3-2.7-.5-3.2-4.8-3.3-8.2-.1-1.5 1.4-2.4 2.5-2.1 2.5 1.7 0-5.4 5.7-10.3 8.1l-5.6 2.9h4.7c2.6 0 4.7.4 4.7.9 0 1.5-3 4.1-4.6 4.1-.8 0-1.2.4-.9 1 .6.9-.7 1.4-2.1.7-.3-.1-1.2 1.3-2.1 3-1.6 3.5-3.3 4.3-3.3 1.8 0-2.7-.1-3-1.6-3.8-.8-.4-1.4-1.6-1.5-2.5 0-1.2-.3-1.1-.9.5-.5 1.3-1.5 2.3-2.2 2.3-.8 0-.9-.3-.3-.8.6-.4 1.1-1.8 1.3-3.2l.3-2.4-2.1 2.2c-2.7 2.9-4.1 2-3.4-2.4.5-3.3-.9-4.8-1.9-2.2-.4.9-1.5.2-3.4-1.8-2.9-3.3-6.9-4.9-7.9-3.3-.3.5-.1.9.5.9 1.2 0 4.1 2.9 4.1 4.1 0 1.4-8.2 4.9-9.5 4.1-.5-.3-.5.1.2.9.8 1 .9 1.9.1 2.9-.8 1.2-.9 1.2-.4-.3.3-1.1.2-1.6-.4-1.2-.6.3-1 1.4-1 2.3 0 1.5-.2 1.5-1 .2-.5-.8-1-1-1-.5 0 .6-1.4 1.9-3.1 2.9l-3.1 1.8 1.3-2.3c1.1-2.1 1.1-2.3-.3-1.1-.9.7-2.2 1.1-2.9 1-.8-.2-1.3.2-1.2.8.1.6-.4 1.1-1.2 1.1-.8 0-1.2-.4-.9-.9.7-1.1-.3-1-2.9.4-2 1-2.1 1-.8-.5.7-1 2.1-1.7 3-1.8 1.1 0 1.2-.2.3-.6-.7-.3-1.9 0-2.7.7-.8.6-1.9.9-2.4.6-.5-.4-1.2-.2-1.6.4-.3.5-1.5 1-2.5 1-1.1 0-2.5 1.3-3.4 3-.9 1.9-1 2.8-.3 2.3.7-.3.5.2-.5 1.3-1.6 1.8-3.6 8.3-3.6 11.4 0 .8-.3 2.3-.7 3.3-.5 1.3-.3 1.6.8 1.2.8-.4 2.1.1 2.9.9 1.1 1.1 1.8 1.2 2.6.4 1.7-1.7 2.7-.1 1.2 1.7-.9 1.1-.9 1.5-.1 1.5.6 0 1.4-1.4 1.8-3 .7-3.8 2.2-4 1.6-.3-.3 2.4-.2 2.5.6.8s1-1.6 1 1.2c.1 1.8-.4 3.3-1 3.3s-.9.7-.6 1.5c.4.8.1 1.7-.5 2.1-.7.4-.8.3-.4-.4s.3-1.2-.3-1.2-.8-.8-.4-1.8c.3-.9.2-1.4-.2-1-.5.5-.7 3.6-.6 7 .1 3.8-.2 5.8-.7 5-.5-.7-1.3-1.2-1.8-1.1-2.1.4-2.4-.2-1.4-2.4 1.1-2.2 1.1-2.2-.9.2-2.3 2.6-2.6 3.7-1.1 4.6.6.4.7-.1.3-1.1-.4-1.2-.3-1.5.5-1 1.7 1 1.5 3.6-.2 3.6-1.9 0-2.7 2.3-1.4 4.1.8 1.1.9 1 .4-.4-.3-.9-.1-1.7.4-1.7 1.5 0 1.2 2.6-.5 4-.8.7-1.2 1.7-.8 2.4.4.6-.1.5-1.1-.3-1.2-1-1.4-1.7-.6-2.5.5-.5 1-1.4 1-2 0-.5-.3-.6-.7-.3-1.1 1.1-3.3-3-2.6-4.9.4-1.2.3-1.5-.5-1-.7.4-1.2.3-1.2-.3 0-.5-.3-1.7-.7-2.7-.4-1.2-.3-1.5.5-1 .7.4 1.2.5 1.2.2s-.9-1-1.9-1.6c-1.4-.7-2.2-.7-2.7.2-.4.6-.3.8.4.4s1 .5 1 2.6c-.1 1.7.4 3.4 1 3.6.7.2 1.2.8 1.2 1.4 0 .6-.9.3-2-.7-1.9-1.8-2-1.7-2 .2 0 2-2.5 3.9-3.3 2.5-.8-1.5 1.4-7.3 2.5-6.6.7.4.8.3.4-.5-.4-.6-1.3-1.1-1.9-1-2.9.3-3.9-.1-3.1-1.4.5-.6.9-1.9.8-2.7-.1-.8-.2-2.1-.3-2.8 0-.7-.5-1.1-1-.8-.5.4-.7-.4-.5-1.6.4-2 .3-2.1-.7-.7-1.1 1.5-1.4 1.4-3.1-.3-2.4-2.4-2.3-2.9.7-2.4 2.5.5 2.5.4.7-1.9-1.1-1.5-1.9-1.9-2.4-1.1-.5.7-.8.6-.9-.4 0-1-.3-.8-.9.5-.7 1.7-.9 1.6-1-1-.1-2.6-.3-2.7-.9-1-.5 1.1-.6 2.4-.3 2.9s-.1.6-.7.1c-.7-.4-1.1-1.8-.8-3.2.2-1.3.2-2.1-.1-1.9-.3.3-1.1-.2-1.9-1.2-1.2-1.5-1.3-1.4-.7 1.1.7 2.9-.5 11.1-1.3 8.9-.3-.6-.9-1-1.3-.7-.5.3-1.4-.4-2-1.5-1-1.8.2-3.1 1.3-1.3.2.5.2.2.1-.5-.2-.6.1-1.2.5-1.2.5 0 1.2.6 1.4 1.2.3.7.3-.3 0-2.2-.8-4.5-.8-4.5-3.5-2.6l-2.2 1.6h2.2c1.3 0 2 .4 1.7 1-.4.6-1.1.8-1.6.5-.5-.4-.9-.1-.9.5s-.4.8-1 .5c-1.7-1.1-1.1 1.1 1.2 4.1 1.3 1.5 1.7 2.5 1 2-1-.6-1.1-.1-.6 1.8.3 1.3.7 4.6.9 7.3.3 5.1 4.5 16.2 7.6 20.2 1.1 1.3 1.9 2.9 1.9 3.6 0 .6.9 2.2 2 3.5 1.1 1.3 2 3.2 2 4.2 0 1.1.4 1.6 1 1.3.5-.3.8 0 .5.7-.3.7.6 2.6 2.1 4.1 1.4 1.5 2.4 3.5 2.2 4.5-.2.9 0 2.1.4 2.7.5.5 1.7 2.1 2.8 3.4 1.1 1.3 2 3 2 3.8 0 .7.4 1.3.9 1.3s1.2 1.4 1.6 3.1c.5 2 1.1 2.9 2.1 2.5.8-.3 1.5-.1 1.5.4.3 2 .5 2.6 1.8 5.7.7 1.8 2.2 3.5 3.2 3.8 2.1.7 2.5 3.5.8 5.2-.7.7-.4 1.2 1.1 1.6 1.9.5 2.1.2 1.7-1.6l-.6-2.2 1.8 2.2c1 1.2 2.2 1.9 2.6 1.5.4-.4.5.6.3 2.3-.3 2.6 0 3 2.2 3.1 1.4 0 3.1.3 3.8.8.7.4 1.2.2 1.2-.4 0-.6.4-.9.9-.5.6.3.8 1.4.6 2.4-.2 1.4.1 1.7 1.4 1.4.9-.2 2.7.5 4 1.6 2.7 2.3 4.6 2.8 3.6.8-.4-.6 0-.4.9.6.8 1.1 1.2 2.5.9 3.3-.3.8 0 1.4.7 1.4.6 0 .8.6.4 1.2-.6 1-.4 1 .7 0 .7-.6 2.4-1.2 3.7-1.2 1.3 0 2-.4 1.7-1-.3-.6.1-1 1-1 1.1 0 1.5.5 1.2 1.4-.4.9 0 1.2 1.1 1 .9-.3 2.9.6 4.3 2 2 1.8 2.9 2.2 3.8 1.3 1.3-1.3 8.1-1.8 8.1-.5 0 .5.4.6 1 .3.5-.3.7 0 .4.8-.3.8-.1 1.8.4 2.1 1.4.8 4.3-.4 3.6-1.5-.3-.5.2-.9 1-.9s1.7-.4 2.1-.9c.3-.6-.4-.8-1.5-.6-1.1.2-2 0-2-.6 0-1.4 3.1-1 8 1.1 3.8 1.7 4.2 1.8 2.3.3l-2.3-1.8 3.8.1c2 .1 4.8.2 6.2.3 2.2.2 2.3.3.6 1-1.7.6-1.7.8-.3 1.4.8.3 2.1-.1 2.7-.8.7-.8 1.6-1.2 2.1-.9.5.3.9.1.9-.4s.7-.9 1.6-.9c1.5 0 1.4.2-.1 1.3-1 .8-2.3 1.1-2.9.8-.6-.3-.3.1.6.8 1.5 1.3 1.5 1.5.1 2.4-1.3.8-.9 1 1.8 1 1.9 0 3.7-.5 4.1-1.1.5-.6.8-.2.8.8 0 1.9-3.6 3.7-6 3-1-.3-.9 0 .3 1 1.1.9 2.6 1.3 3.5 1 1.1-.5 1.3-.3.7.8-.5.8-.4 1.1.1.6.5-.5.9-1.6.9-2.5 0-.9.6-1.6 1.3-1.4.8.1 1.1-.2.7-.8-.3-.5-.2-1 .4-1 .5 0 .8-1.2.5-2.8-.2-1.5-.1-2.2.3-1.5.6.8 1.3.8 2.7-.3 1.1-.8 1.4-1.4.8-1.4-1.4 0-1-3.6.5-5.1 1.4-1.4 3.7 2.5 3 5-.3 1.1.3 1.6 2 1.6 2 0 2.1-.2.8-1.1-3.5-2.6.6-7.2 5.2-5.8 1.7.5 1.7.5.1-.6-1.7-1-1.7-1.3-.3-4 1.8-3.4 3.2-3.7 5.2-1.3.8 1 1.2 1.3.9.6-.4-.7.1-1 1.1-.8 1 .2 2.5.4 3.3.4 1.2.1 1.3.3.1 1-1.1.7-1.1.9 0 1.4 1.2.4 1.1.7-.1 1.6-1.3 1-1.3 1.1 0 1.2.8.1 1.8.1 2.2 0 .4 0 .5.6.2 1.4-.4.8-1 1.3-1.4 1-.4-.3-1 .2-1.3.9-.4 1 0 1.3 1.3 1.1 1.1-.2 1.9-.1 1.9.3-.3 2 .3 2.5 1.2 1.2.8-1.1.9-.8.5 1.5l-.6 3 1.5-2.8c1.8-3.1 3.1-3.8 1.5-.7-1.2 2.2-.5 4.4 1.1 3.5 1.5-1 1 2.1-.5 3.4-1.5 1.2-3 5.4-1.6 4.6.4-.3 1 .5 1.3 1.6.4 1.3 1 1.8 1.8 1.3.8-.4 1-.3.5.5-.4.6-1.2.9-1.7.6-.5-.4-.9.1-.9.9 0 .9.3 1.5.8 1.5 2-.3 3.1.3 3.7 2.2.4 1.3 1.2 1.8 2.2 1.5 1.1-.4 1.3-.2.9.9-.8 2.3 1.1 1.8 2.8-.7.9-1.2 1.6-1.8 1.6-1.2 0 .5-.7 1.9-1.5 3.1-1.4 2-1.4 2.3.5 3.3s2.4.6 2.1-1.3c-.1-.5.3-.6.9-.2.6.3.8 1.1.5 1.6-.4.5.1.9.9.9 2.4 0 2.7 1.6.6 3.8-1.4 1.4-1.6 2.2-.7 2.5.7.3.4.6-.5.6-1.2.1-1.8.9-1.8 2.5 0 1.4-.7 3.2-1.6 4-.8.9-1.3 1.6-.9 1.6.6 0-.9 2-3.9 5-1 1-1.5 2.3-1.2 2.9.3.5-.3 1.2-1.4 1.6-1.1.3-2 1.1-2 1.7 0 1.3-4.7 5.8-6.1 5.8-.6 0-.7.4-.4 1 .3.5.2 1-.3 1-1.1 0-11.2 9.4-11.2 10.4 0 1.3-7.6 8.6-8.9 8.6-.8 0-1.2.3-.9.6.8.8-5 6.3-8.7 8.1-1.6.9-3.2 1.9-3.5 2.4-.8 1.1-15.4 10.6-21.1 13.5-4 2.1-6.4 2.6-13.6 2.8-4.9.1-10.1-.2-11.8-.7-1.6-.4-4.8-.8-6.9-.8-2.2 0-4.5-.3-5-.7-.6-.3-2-.7-3.1-.8-5-.4-17.2-2.6-19-3.3-1.1-.5-4.2-1.9-7-3.2-2.7-1.3-5.4-2.3-6-2.4-.5 0-.9-.6-.8-1.3.2-.7-.4-1.2-1.2-1.2-.8 0-1.5-.5-1.5-1.1 0-1.1-2.4-3.9-3.4-3.9-.3 0-2.7-2.2-5.4-4.9-2.8-2.8-5.3-4.7-5.6-4.4-.3.4-.6 0-.6-.8s-1.9-3.5-4.2-5.9c-2.4-2.5-5.4-6.2-6.8-8.2-1.4-2.1-2.9-3.8-3.3-3.8-.5 0-.6-.4-.3-.9.3-.4-.3-1.6-1.4-2.6-1.1-1-2-2.9-2-4.2 0-1.3-.4-3.2-.9-4.1-.5-.9-1.2-4-1.5-6.7-.3-2.8-1.1-7.9-1.7-11.5-.5-3.6-1.3-10.3-1.5-15-.5-7.9-.4-8.8 1.9-12.2 1.4-2 2.3-3.9 1.9-4.2-.3-.3.2-.6 1.1-.6.9 0 2.2-.9 2.9-2 .7-1.1 1.7-2 2.3-2 .6 0 1.7-.9 2.5-1.9.7-1.1 1.8-1.7 2.3-1.4.6.3.7.1.4-.4-.4-.6 1.8-3.4 4.9-6.2 4.6-4.3 5.5-5.6 5.2-8.1l-.3-2.9-6 2.5c-3.3 1.4-7.4 3.2-9.1 3.9-1.8.8-6.5 4.2-10.5 7.8-4.1 3.5-9 6.9-10.9 7.4-1.9.6-9.8 3.2-17.5 5.7-7.7 2.5-18.3 5.3-23.5 6.2-5.2.9-10.8 2.3-12.4 3.1-1.7.9-9.1 3.1-16.5 5-12.8 3.2-24.4 6.8-26.6 8.3-.5.4-3.6 1.7-6.8 3-3.1 1.2-5.7 2.5-5.7 2.9 0 1.5 23.3 26.2 33.6 35.6 12.1 11.1 23.7 20.5 25.2 20.5.5 0 1.2.7 1.6 1.5.3.8 1 1.5 1.7 1.5.6 0 2.8 1.3 4.8 2.9 3.5 2.7 5.1 3.7 18.3 11.2 9.8 5.6 31.5 16.3 39.3 19.4 12 4.7 29.6 10.1 39 11.9 5 1 9.7 2.2 10.7 2.6.9.5 7 1.7 13.5 2.7 17.1 2.6 73.5 2.6 90.6 0 6.5-1 12.6-2.2 13.5-2.7 1-.4 5.8-1.6 10.7-2.5 5-1 10.4-2.3 12-3 1.7-.7 5.9-2.1 9.5-3 3.6-.9 8.1-2.4 10-3.3 1.9-.8 6.2-2.5 9.5-3.6 6.3-2.2 35.6-16.9 41.6-20.8 1.9-1.3 5-3.2 6.9-4.2 1.9-1.1 5.1-3.1 7-4.6 1.9-1.5 4.3-3 5.3-3.3.9-.4 1.7-1.1 1.7-1.7 0-.5.5-1 1.1-1 3.3 0 32.6-26.4 46.6-41.8l9.5-10.5-5.8-2.4c-3.2-1.2-6.1-2.3-6.6-2.3-.4 0-2.7-.8-5.1-1.9-7.8-3.4-9.8-4.1-11.7-4.1-2.9 0-11.2-3.9-12.7-5.9-.7-1.1-3.1-2.1-6-2.5-11.8-1.5-17.1-2.5-21.4-4-7.5-2.6-11.7-4.5-12.4-5.6-1-1.7-5.3-3.2-11.4-4.1-3-.4-9.1-2.6-13.5-4.7-4.5-2.2-10-4.5-12.2-5.1-2.4-.6-5.8-2.7-8.1-4.9-4.6-4.4-10-6.3-20-6.7-4.1-.2-8.1-.9-8.8-1.5-2.6-2.2-3.7-9.3-3.7-23.5v-14l4.5-9.5c2.4-5.2 5.2-12.2 6.2-15.5.9-3.3 2.6-8.5 3.6-11.6 1.1-3.1 2.2-7.6 2.5-10 .4-2.4 1-5.2 1.5-6.1 1-1.8 2.7-9.4 3.6-15.8.6-4.3 2.5-9 3.7-9 .4 0 .6-.9.3-2.1-.4-1.6-.3-1.8.9-.8.8.6 1.4 1 1.5.8 0-.2.2-1.7.4-3.3.2-1.5.6-3.1.9-3.4.4-.3-.2-1.4-1.1-2.5-1.6-1.6-1.6-2-.3-3 .8-.7 1.6-3 1.6-5.2.2-5.9.7-8.5 1.7-8.5.4 0 .5-.4.2-1-1.1-1.8-1.4-5-.5-5 .5 0 .8-2.9.7-6.5-.5-10.5 3-7.3 3.9 3.8.6 6.2-1.1 12.6-3.6 14.2-1.4.8-.3 2.5 1.6 2.5.8 0 1.2-.5.9-1-.3-.6-.1-1 .4-1 .6 0 1.1-.6 1.1-1.4 0-1.3 3.4-10.6 5.1-13.8 1.1-2.2 1.1-10.9 0-12.7-.5-.8-1.6-1.1-2.6-.8-1 .4-1.4.3-1-.4.4-.5.1-1.7-.6-2.5-1-1.3-.9-1.3 1.2-.6 2.2.9 2.4.7 2.2-2.2-.1-1.7-.2-4.4-.2-5.9-.1-3.3-2.5-4.5-5.4-2.8-1.8 1.2-1.9 1.1-1.3-1.2.3-1.5.1-2.9-.5-3.2-.7-.5-1 2-.8 7.8zm7.4 15.7c1 3.2-.6 4.6-2.1 1.9-1.7-3.1-1.7-3.9 0-3.9.8 0 1.7.9 2.1 2zm-138.8 46.2c-.3.8-.6.5-.6-.6-.1-1.1.2-1.7.5-1.3.3.3.4 1.2.1 1.9zm110.3 6c0 1.9-.2 2-1 .8-1.3-1.9-1.3-3 0-3 .6 0 1 1 1 2.2zm-139 1.3c0 .9-.6 1.2-1.6.8-1.3-.5-1.3-.7-.2-1.4 1.7-1.1 1.8-1.1 1.8.6zm-4 6.5c0 .5-.5 1-1.1 1-.5 0-.7-.5-.4-1 .3-.6.8-1 1.1-1 .2 0 .4.4.4 1zm36.4 3.4c.8-.3 1.6.2 2 1.1.3 1 1.2 1.5 2.1 1.1.9-.3 1.5 0 1.5.9 0 1.1.6 1.2 3.3.3 1.7-.6 3.8-1.5 4.5-2.1.7-.5 1.5-.7 1.9-.4.3.4 1.2.2 2-.4 1-.9 1.3-.8 1.3.5 0 .9.5 1.6 1.1 1.6.6 0 .9-.7.5-1.5-.3-.9 0-1.5 1-1.5.8 0 1.7.6 2 1.3.5 1.4 3.4 1.9 3.4.6 0-.4 1.8-.3 4.1.2 2.2.5 4.8.8 5.7.7 1.3-.2 1.8.6 2 3.2.2 1.9 0 3.2-.4 2.8-1.2-1.2-3.4 1.3-3.4 3.8 0 1.3-.5 2.4-1 2.4-.6 0-.8-1.1-.4-2.5.7-2.7.5-2.8-2-1.9-1.1.4-1.3 1-.7 1.8.7.9.3 1.1-1.7 1-4.1-.2-4.4-.3-3.7-1.4.3-.6-.1-.7-.9-.4-.9.3-1.6 1.1-1.6 1.8 0 .6-.9 1.2-2 1.2s-2-.4-2-.9c0-.4-.5-.5-1.2-.1-1.8 1.2-9.1 1.4-10.3.4-.6-.5-2-.8-3-.6-2.3.4-6.6-1.4-6-2.4.2-.4-.2-.7-1-.7s-1.2.4-.9.9c.3.4-.7.3-2.2-.2-1.5-.6-3.4-.8-4.1-.6-.8.3-1.1.1-.8-.4.3-.6.1-1-.6-1-.8 0-.8-.4.1-1.5.7-.8 1.9-1.5 2.7-1.5.8 0 1.1-.4.8-1-.3-.5-.1-1.8.5-2.7.8-1.3 1-1.4.9-.3-.1.8.2 2.6.8 3.9.9 2.3 1 2.2 2.4-2.3.7-2.6 1.5-4.3 1.7-3.7.2.5.9.8 1.6.5zm-14.8 4.3c-.3 1.5 0 2.3 1 2.3.8 0 1.4-.8 1.5-1.8 0-.9.3-1.2.5-.5.3.6-.2 2.3-1.1 3.7-1.6 2.4-1.9 2.4-4.8 1.2-1.8-.7-3.2-2-3.2-2.9 0-.9.4-1.6.8-1.5.5.2 1.2-.4 1.7-1.3 1.4-2.5 4.1-2 3.6.8zm59.4 1.9c0 .8-.5 1.2-1 .9-.6-.4-.8-1.1-.5-1.6.9-1.4 1.5-1.1 1.5.7zm-72 2.4c0 .5-.2 1-.4 1-.3 0-.8-.5-1.1-1-.3-.6-.1-1 .4-1 .6 0 1.1.4 1.1 1zm126.8 1.5c-.3.3-.9-.2-1.2-1.2-.6-1.4-.5-1.5.5-.6.7.7 1 1.5.7 1.8zm-11.8 2.7c0-.6.7-.9 1.5-.6 1.5.6 2 3.5.8 4.7-.3.4-1.5 0-2.5-1-1.1-.9-1.8-1.1-1.8-.5 0 .7-.5 1.1-1.1.9-.6-.1-1.3.4-1.4 1.1-.2.7-.1.8.1.3.3-.6 1.2-.7 2-.4.7.3 1.1.9.8 1.4-.3.5-1 .7-1.5.4-.5-.4-.9 0-.9.7 0 .9-.3.9-1-.2-.5-.8-.7-2.3-.4-3.4.4-1.3.3-1.6-.6-1.1-.8.5-1.1.4-.7-.3.4-.5 1.7-.8 2.8-.5 1.8.5 2 .3 1.5-1.8-.7-2.3-.6-2.3.8-.5.9 1.1 1.6 1.5 1.6.8zm-12.5 3.6c-.5 1.4-.8 1.2-1.9-.8-.8-1.7-.9-2.7-.2-3.2 1.4-.9 2.9 1.9 2.1 4zm-97.6-2c.8.2 1.7-.2 2.1-.8.4-.7 1.3-.2 2.4 1.4.9 1.4 2.4 2.6 3.3 2.6.9 0 2.5.8 3.5 1.7 1.6 1.4 2.1 1.5 2.8.3.7-1.2 1.1-1.2 2.6.1 1.5 1.2 1.6 1.2 1-.7-.5-1.7-.2-2 1.5-1.9 1.1.1 2.5.8 3 1.6.7 1.2.9 1.2 1-.1.1-.8.1-1.8.1-2.1-.1-.3.9-.4 2.1-.3 1.2.1 2.2.3 2.2.4 0 .6 5.4 1 13.5 1 16.7 0 17.9.1 19.2 2.4.8 1.5 1.2 1.6 2 .5.7-1 .8-.9.4.6-.3 1.1-.2 2.6.3 3.3.8 1.3 9.1 2.5 9.1 1.3 0-1.3 5-1.1 5.1.2 0 .6.4.3.9-.8.8-1.9.9-1.9.9.2.1 1.2-.6 2.8-1.4 3.6-.8.8-1.1 1.8-.7 2.2.4.5-.1.6-1 .2-1.6-.6-3.4 1.7-2.9 3.8.1.5-.3.5-1-.2s-1.9-.9-2.8-.4c-.9.4-3.7.7-6.3.6-2.6-.1-5.3.2-6 .6-.7.5-2 .1-3-.8-1.8-1.6-2.4-.8-1.8 2.2.1.5-.8.1-1.9-.9-1.6-1.5-2.1-1.6-2.1-.5-.1 1-.4.9-1.1-.3-.9-1.6-1.3-1.7-3.9-.3-1.6.8-3.4 2.3-4 3.2-1 1.6-1.1 1.6-.6-.2.6-2 .6-2-.9-.1-1.2 1.6-1.5 1.7-1.5.4 0-2.4-4.2-3.1-5.8-1-.7.9-1.5 1.6-1.7 1.4-1.4-.7-2.3 0-2.9 2.1-.7 2.8.3 6.9 1.5 6.1.5-.3.6.3.2 1.3-.6 1.4-.9 1.3-1.9-1.2-.7-1.7-1.3-3.5-1.4-4.2 0-.8-.7-1-1.7-.6-1.6.6-1.6.5-.4-1 1.2-1.5 1.2-1.7-.2-1.1-.9.3-2 1.9-2.6 3.6-.9 2.6-.9 2.9.4 1.8 1.1-.9 1.5-.9 1.5-.1 0 .7.5.9 1 .6.6-.3 1-.1 1 .4 0 .6-.4 1.1-1 1.1-.5 0-1 .9-1 2s-.6 2-1.4 2c-1 0-1.2-.7-.8-2.3.5-1.9.4-2-1.1-.8-.9.7-1.4 1.7-1.1 2.2.3.5-.4 2.1-1.5 3.5-1.2 1.5-2.1 2.3-2.1 1.9 0-.5.7-1.7 1.7-2.7.9-1 1.3-2.1.9-2.6-.4-.4-1.4.2-2.2 1.2-1.4 1.9-1.9 1.2-1.5-2.1.1-.6-.4-1.5-1-1.9-.7-.4-.9-.3-.6.3.9 1.4-1.6 2.4-3.3 1.3-1-.6-.8-1.1.9-2.1 2.3-1.5 2.9-4.1.9-3.6-.7.1-1.2-.5-1-1.3.1-.9-.5-.6-1.6.8-1.8 2.3-3.5 2.1-2.5-.3.2-.8-.5-2.4-1.8-3.7-1.2-1.3-1.8-1.7-1.4-.9.6 1 .4 1.2-.4.7-.9-.6-.9-1.1-.1-2.1.7-.8.9-1.9.5-2.6-.6-.8-1-.7-1.7.2-.7 1-.8.5-.6-1.7.3-2 0-3.1-.9-3.1-.6 0-1 .4-.7.8.2.4 0 1-.5 1.3-1.3.9-.2-7.5 1.2-9.3 1-1.2.9-1.3-1-.3-2.7 1.5-3.9-.8-1.6-3.5 1.4-1.7 1.4-1.7.9 0-.4 1.2-.2 1.7.6 1.5 1.4-.5 2.2-4.8.8-4.8-.5 0-.7-.7-.3-1.6.3-.9.9-1.2 1.2-.7.3.4 1.2.9 2 1.1zm91.4-.3c-.3.9-.8 1.4-1 1.1-.3-.3-.2-.9.2-1.5.9-1.6 1.5-1.3.8.4zm-130 2.5c.3 1.3.1 1.8-.5 1.3-.8-.4-.9.7-.6 3.3l.6 3.9-1.3-3c-1.3-2.7-1.4-2.8-1.5-.7 0 1.9-.2 2.1-1.4 1-.7-.7-1.2-2-1.1-2.8.2-.8.4-1.8.4-2.3.1-.4.6-.7 1.2-.7.5 0 .7.5.3 1.2-.4.7-.3.8.4.4s1.2-1.4 1.2-2.2c0-2.1 1.7-1.7 2.3.6zm-8.9.5c-.4.8-.1 1.5.5 1.5s1.1.9 1.1 2-.4 2-1 2c-.5 0-.7.8-.4 1.7.5 1.5.4 1.6-.5.3-.6-.9-.7-1.8-.1-2.4 1.2-1.2 1.3-2.9.1-2.2-.6.4-.8-2.9-.2-4.2.5-1 .9.1.5 1.3zm148.6 3c0 .5-.5.3-1-.5s-1-2-1-2.5c0-.6.5-.3 1 .5s1 1.9 1 2.5zm13.7-.3c-.3.7-.5.2-.5-1.2s.2-1.9.5-1.3c.2.7.2 1.9 0 2.5zm-7.2 4.7c.2 1.2 0 1.9-.6 1.6-.5-.4-.7-1.1-.4-1.6.4-.5.1-.9-.4-.9-.6 0-1.1.5-1.1 1.2 0 .6-.3.8-.6.5-.4-.4-.1-1.3.6-2.2 1.5-1.8 1.9-1.6 2.5 1.4zm-21.3 2.7c-.9 1.6-1 1.4-.9-.8.1-1.5.6-2.3 1.1-1.8.4.4.4 1.6-.2 2.6zm-128.2.8c0 .4-.9.6-2 .3s-2-.2-2 .3c0 .4.9 1 2 1.3 1.1.3 2 1.1 2 1.9 0 1-.3.9-1-.2-.5-.8-1-1.1-1-.6 0 1.1-3-1.3-3-2.5 0-.4.7-1.5 1.6-2.4 1.4-1.3 1.9-1.4 2.5-.3.5.7.9 1.7.9 2.2zm36.7-1.2c-.3.8-.6.5-.6-.6-.1-1.1.2-1.7.5-1.3.3.3.4 1.2.1 1.9zm-26.4-.6c.8.8-.3 3.4-1.4 3.4-.5 0-.9-.9-.9-2 0-1.9 1.1-2.6 2.3-1.4zM334 361c0 .5-.2 1-.4 1-.3 0-.8-.5-1.1-1-.3-.6-.1-1 .4-1 .6 0 1.1.4 1.1 1zm24.5 0c.3.5.2 1-.4 1-.5 0-1.3-.5-1.6-1-.3-.6-.2-1 .4-1 .5 0 1.3.4 1.6 1zm-135.4 8.3c-1 .9-1.1.8-.5-.6.3-1 .9-1.5 1.2-1.2.3.3 0 1.1-.7 1.8zm52.3 16.3c.3.8.2 1.2-.4.9-.6-.3-1-1-1-1.6 0-1.4.7-1.1 1.4.7zM234.3 422c.3 1.1.3 2 .1 2-.2 0-.8-.9-1.4-2-.6-1.1-.7-2-.2-2 .6 0 1.2.9 1.5 2zM352 437.1c0 .5.5.7 1.2.3.7-.4.8-.3.4.4-1 1.6-2.3 1.5-3-.3-.3-.8-.1-1.5.4-1.5.6 0 1 .5 1 1.1zm-13 5.8c0 1.2-2 2.5-2.7 1.8-.7-.7.6-2.7 1.8-2.7.5 0 .9.4.9.9zm-74 5.1c0 .5-.2 1-.4 1-.3 0-.8-.5-1.1-1-.3-.6-.1-1 .4-1 .6 0 1.1.4 1.1 1zm49.5 1c-.3.5-1.4 1-2.3.9-1.4 0-1.3-.2.3-.9 2.7-1.1 2.7-1.1 2 0zm-33.8 2.6c-.9.9-2.8-.6-2.1-1.8.4-.6 1-.6 1.7.1.6.6.8 1.3.4 1.7zM323 453c0 .5-.5 1-1.1 1-.5 0-.7-.5-.4-1 .3-.6.8-1 1.1-1 .2 0 .4.4.4 1z"/><path d="M277 336.5c0 .5.5 1.7 1 2.5s1 1 1 .5c0-.6-.5-1.7-1-2.5s-1-1.1-1-.5zM256.1 335.7c-.1.6-.4 2-.7 3-.5 1.7-.5 1.7.6 0 .6-1 .9-2.3.6-3-.3-.9-.5-.9-.5 0zM362.3 251.6c.3.3 2.3 1 4.4 1.4 3.4.8 3.6.7 1.9-.6-1.9-1.3-7.6-2.1-6.3-.8zM373.3 252.9c-1 1.6-.9 2 .4 2.5.9.4 1.9.3 2.2 0 .3-.4.1-.9-.6-1.1-.7-.2-.9-1.1-.6-1.9.7-2 0-1.7-1.4.5zM184.2 261c0 1.4.2 1.9.5 1.2.2-.6.2-1.8 0-2.5-.3-.6-.5-.1-.5 1.3zM189.4 287c.1 3.6.6 7.1 1 7.9.6 1 .5 1.2-.2.7-.9-.5-1.2.6-1.2 3.8 0 2.6.5 4.6 1.1 4.6.5 0 .7.5.4 1-.4.6-.2 1.6.3 2.3.5.7 1.3 3.7 1.8 6.7.8 5.2.9 6.2 1.3 10.2 0 1.1.7 1.5 1.5 1.2 1-.4 1.6.2 1.8 1.8.2 1.3.9 2.2 1.5 2.1.8-.2 1 .4.6 1.4-.5 1.3-.2 1.5 1.1 1 1.4-.5 1.7-.3 1.2.8-.3.9 0 1.5.8 1.5 1.9 0 2.8-2.7 1.2-3.3-.8-.3-1.8-2.3-2.4-4.4-.6-2.4-1-3-1.1-1.6-.1 1.2-.6 2.5-1.3 2.9-.7.5-.9.2-.5-.9.3-.9.1-1.7-.4-1.9-.7-.2-.6-1.4.1-3.3l1.1-3-2.1 2.2c-1.1 1.3-2.2 2.3-2.3 2.3-.1 0-.2-3.1-.1-7 0-3.8-.3-7-.6-7-.4 0-.8-2.5-.9-5.6-.1-3-.6-6.5-1-7.7-.4-1.2-.9-3.8-.9-5.7-.1-1.9-.6-4.9-1.1-6.5-.8-2.5-.9-1.8-.7 3.5zM331.6 290.3c.3 1 .9 1.5 1.2 1.2.3-.3 0-1.1-.7-1.8-1-.9-1.1-.8-.5.6zM275.5 296.5c-.5.2-2.2.6-3.7.9-5.1 1.1-2.9 2.3 4.2 2.3 3.9.1 7-.1 7-.3 0-.4-5.7-3.4-6.2-3.3-.2 0-.7.2-1.3.4zM294.1 304.9c-.8.5-.9 1.1-.3 1.5.5.3 1.2-.1 1.6-.9.6-1.7.6-1.8-1.3-.6zM378 308c0 .5.5 1 1.1 1 .5 0 .7-.5.4-1-.3-.6-.8-1-1.1-1-.2 0-.4.4-.4 1zM372.1 320.7c.7 1.2 1.5 2 1.8 1.7.3-.2-.3-1.2-1.3-2.2-1.7-1.6-1.8-1.6-.5.5zM373 326.9c0 .6.4 1.3 1 1.6.6.3.7-.1.4-.9-.7-1.8-1.4-2.1-1.4-.7zM194.4 329.4c-.7.8-.8 2-.2 3.6.8 2.2 1.1 2.3 1.9.8 1.2-2.2-.2-6-1.7-4.4zM371 329.8c0 .6.9 1.2 2 1.5 1.1.3 2 .3 2 .1 0-.2-.9-.8-2-1.4-1.1-.6-2-.7-2-.2zM198.1 334.6c0 1.1.3 1.4.6.6.3-.7.2-1.6-.1-1.9-.3-.4-.6.2-.5 1.3zM220.2 347.7c-.4 1-.5 3.4-.2 5.3.6 3.3.6 3.2 1.1-1.8.2-2.8.3-5.2.2-5.2-.1 0-.6.8-1.1 1.7zM233.3 354.2c-.2 1.6.1 1.8 1 .9.7-.7.8-1.4.1-2.1-.6-.6-1-.2-1.1 1.2zM205.5 438c-.3.5-.1 1 .4 1 .6 0 1.1-.5 1.1-1 0-.6-.2-1-.4-1-.3 0-.8.4-1.1 1zM342 442c0 .5.7 1 1.6 1 .8 0 1.2-.5.9-1-.3-.6-1-1-1.6-1-.5 0-.9.4-.9 1zM308 454c-1.2.8-1.1 1 .6 1 1.1 0 2.6.6 3.4 1.2.8.7.6.3-.4-1-1.1-1.2-2-2.2-2-2.2-.1 0-.8.5-1.6 1zM296.5 456c.3.5.8 1 1.1 1 .2 0 .4-.5.4-1 0-.6-.5-1-1.1-1-.5 0-.7.4-.4 1zM354.5 462c.3.5.8 1 1.1 1 .2 0 .4-.5.4-1 0-.6-.5-1-1.1-1-.5 0-.7.4-.4 1zM373.5 482c-.3.6.1.7.9.4 1.8-.7 2.1-1.4.7-1.4-.6 0-1.3.4-1.6 1z"/></svg>